<svg id="drawing" xmlns="http://www.w3.org/2000/svg" version="1.1" xmlns:xlink="http://www.w3.org/1999/xlink" width="980" height="1292" viewBox="-20 -20 980 1292"><defs id="SvgjsDefs1001"><marker id="SvgjsMarker1045" markerWidth="16.23606797749979" markerHeight="10.550836550532098" refX="-1" refY="3.8990363547948754" viewBox="-1 -1.3763819204711736 16.23606797749979 10.550836550532098" orient="auto" markerUnits="userSpaceOnUse"><path id="SvgjsPath1046" d="M12 3.899036407470703L0 7.798072814941406V0Z " stroke="#323232" stroke-width="2" fill="#323232" transform="matrix(1,0,0,1,0,0)"></path></marker><marker id="SvgjsMarker1052" markerWidth="16.23606797749979" markerHeight="10.550836550532098" refX="-1" refY="3.8990363547948754" viewBox="-1 -1.3763819204711736 16.23606797749979 10.550836550532098" orient="auto" markerUnits="userSpaceOnUse"><path id="SvgjsPath1053" d="M12 3.899036407470703L0 7.798072814941406V0Z " stroke="#323232" stroke-width="2" fill="#323232" transform="matrix(1,0,0,1,0,0)"></path></marker><marker id="SvgjsMarker1064" markerWidth="16.23606797749979" markerHeight="10.550836550532098" refX="-1" refY="3.8990363547948754" viewBox="-1 -1.3763819204711736 16.23606797749979 10.550836550532098" orient="auto" markerUnits="userSpaceOnUse"><path id="SvgjsPath1065" d="M12 3.899036407470703L0 7.798072814941406V0Z " stroke="#323232" stroke-width="2" fill="#323232" transform="matrix(1,0,0,1,0,0)"></path></marker><marker id="SvgjsMarker1104" markerWidth="16.23606797749979" markerHeight="10.550836550532098" refX="-1" refY="3.8990363547948754" viewBox="-1 -1.3763819204711736 16.23606797749979 10.550836550532098" orient="auto" markerUnits="userSpaceOnUse"><path id="SvgjsPath1105" d="M12 3.899036407470703L0 7.798072814941406V0Z " stroke="#323232" stroke-width="2" fill="#323232" transform="matrix(1,0,0,1,0,0)"></path></marker><marker id="SvgjsMarker1111" markerWidth="16.23606797749979" markerHeight="10.550836550532098" refX="-1" refY="3.8990363547948754" viewBox="-1 -1.3763819204711736 16.23606797749979 10.550836550532098" orient="auto" markerUnits="userSpaceOnUse"><path id="SvgjsPath1112" d="M12 3.899036407470703L0 7.798072814941406V0Z " stroke="#323232" stroke-width="2" fill="#323232" transform="matrix(1,0,0,1,0,0)"></path></marker><marker id="SvgjsMarker1118" markerWidth="16.23606797749979" markerHeight="10.550836550532098" refX="-1" refY="3.8990363547948754" viewBox="-1 -1.3763819204711736 16.23606797749979 10.550836550532098" orient="auto" markerUnits="userSpaceOnUse"><path id="SvgjsPath1119" d="M12 3.899036407470703L0 7.798072814941406V0Z " stroke="#323232" stroke-width="2" fill="#323232" transform="matrix(1,0,0,1,0,0)"></path></marker><linearGradient id="SvgjsLinearGradient1125" x1="0.5" y1="0" x2="0.5000000000000001" y2="1"><stop id="SvgjsStop1126" stop-opacity="1" stop-color="#ffffff" offset="0"></stop><stop id="SvgjsStop1127" stop-opacity="1" stop-color="#99ccff" offset="1"></stop></linearGradient></defs><g id="SvgjsG1007"><path id="SvgjsPath1008" d="M-20 -20H960V1272H-20V-20Z " fill-opacity="1" fill="#ffffff"></path><g id="SvgjsG1009"><g id="SvgjsG1010" transform="translate(401 437)" opacity="1"><path id="SvgjsPath1011" d="M0 25L243 25Q247 25 247 29L247 209Q247 213 243 213L4 213Q0 213 0 209Z " stroke-dasharray="" stroke="#323232" stroke-width="2" fill="#ffffff" opacity="1"></path><path id="SvgjsPath1012" d="M0 4Q0 0 4 0L168.89999389648438 0Q172.89999389648438 0 175.89999389648438 3L187.72000122070312 25L0 25Z " stroke-dasharray="" stroke="#323232" stroke-width="2" fill="#ffffff" opacity="1"></path><g id="SvgjsG1013" transform="matrix(1 0 0 1 10 4.375)" fill="#ffffff"><text id="SvgjsText1014" font-family="微软雅黑,宋体" text-rendering="optimize-speed" fill="#000000" font-size="13" font-weight="bold" font-style="normal" text-anchor="start" text-decoration="blink" x="0" y="13.78125">Android Framework</text></g></g><g id="SvgjsG1015" transform="translate(79.5 437)" opacity="1"><path id="SvgjsPath1016" d="M0 25L281 25Q285 25 285 29L285 209Q285 213 281 213L4 213Q0 213 0 209Z " stroke-dasharray="" stroke="#323232" stroke-width="2" fill="#ffffff" opacity="1"></path><path id="SvgjsPath1017" d="M0 4Q0 0 4 0L195.5 0Q199.5 0 202.5 3L216.60000610351562 25L0 25Z " stroke-dasharray="" stroke="#323232" stroke-width="2" fill="#ffffff" opacity="1"></path><g id="SvgjsG1018" transform="matrix(1 0 0 1 10 4.375)" fill="#ffffff"><text id="SvgjsText1019" font-family="微软雅黑,宋体" text-rendering="optimize-speed" fill="#000000" font-size="13" font-weight="bold" font-style="normal" text-anchor="start" text-decoration="blink" x="0" y="13.78125">高德 SDK</text></g></g><g id="SvgjsG1020" transform="translate(117 488)" opacity="1"><path id="SvgjsPath1021" d="M0 4Q0 0 4 0L206 0Q210 0 210 4L210 146Q210 150 206 150L4 150Q0 150 0 146Z " stroke-dasharray="" stroke="#323232" stroke-width="2" fill="#ffffff" opacity="1"></path><path id="SvgjsPath1022" d="M0 30L210 30M0 90L210 90 " stroke-dasharray="" stroke="#323232" stroke-width="2" fill="none" opacity="1"></path><g id="SvgjsG1023" transform="matrix(1 0 0 1 10 6.875)" fill="#ffffff"><text id="SvgjsText1024" font-family="微软雅黑,宋体" text-rendering="optimize-speed" fill="#000000" font-size="13" font-weight="bold" font-style="normal" text-anchor="middle" text-decoration="blink" x="95" y="13.78125">LocationManagerProxy</text></g><g id="SvgjsG1025" transform="matrix(1 0 0 1 10 43.75)" fill="#ffffff"><text id="SvgjsText1026" font-family="微软雅黑,宋体" text-rendering="optimize-speed" fill="#000000" font-size="13" font-weight="normal" font-style="normal" text-anchor="start" text-decoration="blink" x="0" y="13.78125">- requestLocationData</text><text id="SvgjsText1027" font-family="微软雅黑,宋体" text-rendering="optimize-speed" fill="#000000" font-size="13" font-weight="normal" font-style="normal" text-anchor="start" text-decoration="blink" x="0" y="30.03125">- onLocationUpdate</text></g></g><g id="SvgjsG1028" transform="translate(117 255)" opacity="1"><path id="SvgjsPath1029" d="M0 4Q0 0 4 0L206 0Q210 0 210 4L210 146Q210 150 206 150L4 150Q0 150 0 146Z " stroke-dasharray="" stroke="#323232" stroke-width="2" fill="#ffffff" opacity="1"></path><path id="SvgjsPath1030" d="M0 30L210 30 " stroke-dasharray="" stroke="#323232" stroke-width="2" fill="none" opacity="1"></path><g id="SvgjsG1031" transform="matrix(1 0 0 1 10 6.875)" fill="#ffffff"><text id="SvgjsText1032" font-family="微软雅黑,宋体" text-rendering="optimize-speed" fill="#000000" font-size="13" font-weight="bold" font-style="normal" text-anchor="middle" text-decoration="blink" x="95" y="13.78125">BizModule</text></g><g id="SvgjsG1033" transform="matrix(1 0 0 1 10 73.75)" fill="#ffffff"><text id="SvgjsText1034" font-family="微软雅黑,宋体" text-rendering="optimize-speed" fill="#000000" font-size="13" font-weight="normal" font-style="normal" text-anchor="start" text-decoration="blink" x="0" y="13.78125">- init</text><text id="SvgjsText1035" font-family="微软雅黑,宋体" text-rendering="optimize-speed" fill="#000000" font-size="13" font-weight="normal" font-style="normal" text-anchor="start" text-decoration="blink" x="0" y="30.03125">- onLocatonUpdate</text></g></g><g id="SvgjsG1036" transform="translate(425.5 488)" opacity="1"><path id="SvgjsPath1037" d="M0 4Q0 0 4 0L206 0Q210 0 210 4L210 146Q210 150 206 150L4 150Q0 150 0 146Z " stroke-dasharray="" stroke="#323232" stroke-width="2" fill="#ffffff" opacity="1"></path><path id="SvgjsPath1038" d="M0 30L210 30M0 90L210 90 " stroke-dasharray="" stroke="#323232" stroke-width="2" fill="none" opacity="1"></path><g id="SvgjsG1039" transform="matrix(1 0 0 1 10 6.875)" fill="#ffffff"><text id="SvgjsText1040" font-family="微软雅黑,宋体" text-rendering="optimize-speed" fill="#000000" font-size="13" font-weight="bold" font-style="normal" text-anchor="middle" text-decoration="blink" x="95" y="13.78125">LocationManager</text></g><g id="SvgjsG1041" transform="matrix(1 0 0 1 10 51.875)" fill="#ffffff"><text id="SvgjsText1042" font-family="微软雅黑,宋体" text-rendering="optimize-speed" fill="#000000" font-size="13" font-weight="normal" font-style="normal" text-anchor="start" text-decoration="blink" x="0" y="13.78125">- requestLocation</text></g></g><g id="SvgjsG1043"><path id="SvgjsPath1044" d="M222 405L222 446.5L222 446.5L222 472.7639465332031 " stroke-dasharray="" stroke="#323232" stroke-width="2" fill="none" marker-end="url(#SvgjsMarker1045)"></path><g id="SvgjsG1047" transform="matrix(1 0 0 1 222 430.75696601125014)" fill="#ffffff"><path id="SvgjsPath1048" d="M0 0H0V0H0V0Z " fill="#ffffff" transform="translate(0 0)"></path><text id="SvgjsText1049" font-family="Microsoft Yahei,宋体" text-rendering="optimize-speed" fill="#000000" font-size="13" font-weight="0" font-style="" text-anchor="middle" text-decoration="" x="0" y="0"></text></g></g><g id="SvgjsG1050"><path id="SvgjsPath1051" d="M327 563L376.25 563L376.25 563L410.2639465332031 563 " stroke-dasharray="" stroke="#323232" stroke-width="2" fill="none" marker-end="url(#SvgjsMarker1052)"></path><g id="SvgjsG1054" transform="matrix(1 0 0 1 368.63196601125014 554.875)" fill="#ffffff"><path id="SvgjsPath1055" d="M0 0H0V0H0V0Z " fill="#ffffff" transform="translate(0 0)"></path><text id="SvgjsText1056" font-family="Microsoft Yahei,宋体" text-rendering="optimize-speed" fill="#000000" font-size="13" font-weight="0" font-style="" text-anchor="middle" text-decoration="" x="0" y="0"></text></g></g><g id="SvgjsG1057" transform="translate(700 437)" opacity="1"><path id="SvgjsPath1058" d="M0 25L236 25Q240 25 240 29L240 209Q240 213 236 213L4 213Q0 213 0 209Z " stroke-dasharray="" stroke="#323232" stroke-width="2" fill="#ffffff" opacity="1"></path><path id="SvgjsPath1059" d="M0 4Q0 0 4 0L164 0Q168 0 171 3L182.39999389648438 25L0 25Z " stroke-dasharray="" stroke="#323232" stroke-width="2" fill="#ffffff" opacity="1"></path><g id="SvgjsG1060" transform="matrix(1 0 0 1 10 4.375)" fill="#ffffff"><text id="SvgjsText1061" font-family="微软雅黑,宋体" text-rendering="optimize-speed" fill="#000000" font-size="13" font-weight="bold" font-style="normal" text-anchor="start" text-decoration="blink" x="0" y="13.78125">Android HAL 层定位模块</text></g></g><g id="SvgjsG1062"><path id="SvgjsPath1063" d="M635.5 563L667.75 563L667.75 543.5L684.763916015625 543.5 " stroke-dasharray="" stroke="#323232" stroke-width="2" fill="none" marker-end="url(#SvgjsMarker1064)"></path><g id="SvgjsG1066" transform="matrix(1 0 0 1 667.75 552.7430339887499)" fill="#ffffff"><path id="SvgjsPath1067" d="M0 0H0V0H0V0Z " fill="#ffffff" transform="translate(0 0)"></path><text id="SvgjsText1068" font-family="Microsoft Yahei,宋体" text-rendering="optimize-speed" fill="#000000" font-size="13" font-weight="0" font-style="" text-anchor="middle" text-decoration="" x="0" y="0"></text></g></g><g id="SvgjsG1069" transform="translate(398 1039)" opacity="1"><path id="SvgjsPath1070" d="M0 25L243 25Q247 25 247 29L247 209Q247 213 243 213L4 213Q0 213 0 209Z " stroke-dasharray="" stroke="#323232" stroke-width="2" fill="#ffffff" opacity="1"></path><path id="SvgjsPath1071" d="M0 4Q0 0 4 0L168.89999389648438 0Q172.89999389648438 0 175.89999389648438 3L187.72000122070312 25L0 25Z " stroke-dasharray="" stroke="#323232" stroke-width="2" fill="#ffffff" opacity="1"></path><g id="SvgjsG1072" transform="matrix(1 0 0 1 10 4.375)" fill="#ffffff"><text id="SvgjsText1073" font-family="微软雅黑,宋体" text-rendering="optimize-speed" fill="#000000" font-size="13" font-weight="bold" font-style="normal" text-anchor="start" text-decoration="blink" x="0" y="13.78125">Android Framework</text></g></g><g id="SvgjsG1074" transform="translate(76.5 1039)" opacity="1"><path id="SvgjsPath1075" d="M0 25L281 25Q285 25 285 29L285 209Q285 213 281 213L4 213Q0 213 0 209Z " stroke-dasharray="" stroke="#323232" stroke-width="2" fill="#ffffff" opacity="1"></path><path id="SvgjsPath1076" d="M0 4Q0 0 4 0L195.5 0Q199.5 0 202.5 3L216.60000610351562 25L0 25Z " stroke-dasharray="" stroke="#323232" stroke-width="2" fill="#ffffff" opacity="1"></path><g id="SvgjsG1077" transform="matrix(1 0 0 1 10 4.375)" fill="#ffffff"><text id="SvgjsText1078" font-family="微软雅黑,宋体" text-rendering="optimize-speed" fill="#000000" font-size="13" font-weight="bold" font-style="normal" text-anchor="start" text-decoration="blink" x="0" y="13.78125">高德 SDK</text></g></g><g id="SvgjsG1079" transform="translate(114 1090)" opacity="1"><path id="SvgjsPath1080" d="M0 4Q0 0 4 0L206 0Q210 0 210 4L210 146Q210 150 206 150L4 150Q0 150 0 146Z " stroke-dasharray="" stroke="#323232" stroke-width="2" fill="#ffffff" opacity="1"></path><path id="SvgjsPath1081" d="M0 30L210 30M0 90L210 90 " stroke-dasharray="" stroke="#323232" stroke-width="2" fill="none" opacity="1"></path><g id="SvgjsG1082" transform="matrix(1 0 0 1 10 6.875)" fill="#ffffff"><text id="SvgjsText1083" font-family="微软雅黑,宋体" text-rendering="optimize-speed" fill="#000000" font-size="13" font-weight="bold" font-style="normal" text-anchor="middle" text-decoration="blink" x="95" y="13.78125">LocationManagerProxy</text></g><g id="SvgjsG1084" transform="matrix(1 0 0 1 10 43.75)" fill="#ffffff"><text id="SvgjsText1085" font-family="微软雅黑,宋体" text-rendering="optimize-speed" fill="#000000" font-size="13" font-weight="normal" font-style="normal" text-anchor="start" text-decoration="blink" x="0" y="13.78125">- requestLocationData</text><text id="SvgjsText1086" font-family="微软雅黑,宋体" text-rendering="optimize-speed" fill="#000000" font-size="13" font-weight="normal" font-style="normal" text-anchor="start" text-decoration="blink" x="0" y="30.03125">- onLocationUpdate</text></g></g><g id="SvgjsG1087" transform="translate(114 827)" opacity="1"><path id="SvgjsPath1088" d="M0 4Q0 0 4 0L206 0Q210 0 210 4L210 146Q210 150 206 150L4 150Q0 150 0 146Z " stroke-dasharray="" stroke="#323232" stroke-width="2" fill="#ffffff" opacity="1"></path><path id="SvgjsPath1089" d="M0 30L210 30 " stroke-dasharray="" stroke="#323232" stroke-width="2" fill="none" opacity="1"></path><g id="SvgjsG1090" transform="matrix(1 0 0 1 10 6.875)" fill="#ffffff"><text id="SvgjsText1091" font-family="微软雅黑,宋体" text-rendering="optimize-speed" fill="#000000" font-size="13" font-weight="bold" font-style="normal" text-anchor="middle" text-decoration="blink" x="95" y="13.78125">BizModule</text></g><g id="SvgjsG1092" transform="matrix(1 0 0 1 10 73.75)" fill="#ffffff"><text id="SvgjsText1093" font-family="微软雅黑,宋体" text-rendering="optimize-speed" fill="#000000" font-size="13" font-weight="normal" font-style="normal" text-anchor="start" text-decoration="blink" x="0" y="13.78125">- init</text><text id="SvgjsText1094" font-family="微软雅黑,宋体" text-rendering="optimize-speed" fill="#000000" font-size="13" font-weight="normal" font-style="normal" text-anchor="start" text-decoration="blink" x="0" y="30.03125">- onLocatonUpdate</text></g></g><g id="SvgjsG1095" transform="translate(422.5 1090)" opacity="1"><path id="SvgjsPath1096" d="M0 4Q0 0 4 0L206 0Q210 0 210 4L210 146Q210 150 206 150L4 150Q0 150 0 146Z " stroke-dasharray="" stroke="#323232" stroke-width="2" fill="#ffffff" opacity="1"></path><path id="SvgjsPath1097" d="M0 30L210 30M0 90L210 90 " stroke-dasharray="" stroke="#323232" stroke-width="2" fill="none" opacity="1"></path><g id="SvgjsG1098" transform="matrix(1 0 0 1 10 6.875)" fill="#ffffff"><text id="SvgjsText1099" font-family="微软雅黑,宋体" text-rendering="optimize-speed" fill="#000000" font-size="13" font-weight="bold" font-style="normal" text-anchor="middle" text-decoration="blink" x="95" y="13.78125">LocationManager</text></g><g id="SvgjsG1100" transform="matrix(1 0 0 1 10 51.875)" fill="#ffffff"><text id="SvgjsText1101" font-family="微软雅黑,宋体" text-rendering="optimize-speed" fill="#000000" font-size="13" font-weight="normal" font-style="normal" text-anchor="start" text-decoration="blink" x="0" y="13.78125">- requestLocation</text></g></g><g id="SvgjsG1102"><path id="SvgjsPath1103" d="M219 977L219 1033.5L219 1033.5L219 1074.763916015625 " stroke-dasharray="" stroke="#323232" stroke-width="2" fill="none" marker-end="url(#SvgjsMarker1104)"></path><g id="SvgjsG1106" transform="matrix(1 0 0 1 219 1017.7569660112501)" fill="#ffffff"><path id="SvgjsPath1107" d="M0 0H0V0H0V0Z " fill="#ffffff" transform="translate(0 0)"></path><text id="SvgjsText1108" font-family="Microsoft Yahei,宋体" text-rendering="optimize-speed" fill="#000000" font-size="13" font-weight="0" font-style="" text-anchor="middle" text-decoration="" x="0" y="0"></text></g></g><g id="SvgjsG1109"><path id="SvgjsPath1110" d="M324 1165L373.25 1165L373.25 1165L407.2639465332031 1165 " stroke-dasharray="" stroke="#323232" stroke-width="2" fill="none" marker-end="url(#SvgjsMarker1111)"></path><g id="SvgjsG1113" transform="matrix(1 0 0 1 365.63196601125014 1156.875)" fill="#ffffff"><path id="SvgjsPath1114" d="M0 0H0V0H0V0Z " fill="#ffffff" transform="translate(0 0)"></path><text id="SvgjsText1115" font-family="Microsoft Yahei,宋体" text-rendering="optimize-speed" fill="#000000" font-size="13" font-weight="0" font-style="" text-anchor="middle" text-decoration="" x="0" y="0"></text></g></g><g id="SvgjsG1116"><path id="SvgjsPath1117" d="M632.5 1165L664.75 1165L664.75 1145.5L681.763916015625 1145.5 " stroke-dasharray="" stroke="#323232" stroke-width="2" fill="none" marker-end="url(#SvgjsMarker1118)"></path><g id="SvgjsG1120" transform="matrix(1 0 0 1 664.75 1154.7430339887499)" fill="#ffffff"><path id="SvgjsPath1121" d="M0 0H0V0H0V0Z " fill="#ffffff" transform="translate(0 0)"></path><text id="SvgjsText1122" font-family="Microsoft Yahei,宋体" text-rendering="optimize-speed" fill="#000000" font-size="13" font-weight="0" font-style="" text-anchor="middle" text-decoration="" x="0" y="0"></text></g></g><g id="SvgjsG1123" transform="translate(697 1070.5)" opacity="1"><path id="SvgjsPath1124" d="M0 4Q0 0 4 0L226 0Q230 0 230 4L230 108Q230 112 226 112L4 112Q0 112 0 108Z " stroke-dasharray="" stroke="#323232" stroke-width="2" fill="url(#SvgjsLinearGradient1125)"></path><path id="SvgjsPath1128" d="M0 30L230 30M0 73L230 73 " stroke-dasharray="" stroke="#323232" stroke-width="2" fill="none" opacity="1"></path><g id="SvgjsG1129" transform="matrix(1 0 0 1 10 6.875)" fill="#ffffff"><text id="SvgjsText1130" font-family="微软雅黑,宋体" text-rendering="optimize-speed" fill="#000000" font-size="13" font-weight="bold" font-style="normal" text-anchor="middle" text-decoration="blink" x="105" y="13.78125">GpsRepeater</text></g><g id="SvgjsG1131" transform="matrix(1 0 0 1 10 32.75)" fill="#ffffff"><text id="SvgjsText1132" font-family="微软雅黑,宋体" text-rendering="optimize-speed" fill="#000000" font-size="13" font-weight="normal" font-style="normal" text-anchor="start" text-decoration="blink" x="0" y="13.78125">+ start()</text><text id="SvgjsText1133" font-family="微软雅黑,宋体" text-rendering="optimize-speed" fill="#000000" font-size="13" font-weight="normal" font-style="normal" text-anchor="start" text-decoration="blink" x="0" y="16.25"></text></g></g><g id="SvgjsG1134" transform="translate(66 114)" opacity="1"><g id="SvgjsG1135" transform="matrix(1 0 0 1 0 1.25)" fill="#ffffff"><text id="SvgjsText1136" font-family="微软雅黑,宋体" text-rendering="optimize-speed" fill="#000000" font-size="30" font-weight="bold" font-style="normal" text-anchor="middle" text-decoration="blink" x="80" y="31.8125">Normal</text></g></g><g id="SvgjsG1137" transform="translate(66 724)" opacity="1"><g id="SvgjsG1138" transform="matrix(1 0 0 1 0 1.25)" fill="#ffffff"><text id="SvgjsText1139" font-family="微软雅黑,宋体" text-rendering="optimize-speed" fill="#000000" font-size="30" font-weight="bold" font-style="normal" text-anchor="middle" text-decoration="blink" x="80" y="31.8125">Faking</text></g></g></g></g></svg>